# xmcd
#
# Track frame offsets:
#	150
#	11309
#	21806
#	43931
#	55892
#	72604
#	86026
#	96700
#	110352
#	120016
#	129685
#	144643
#	159666
#
# Disc length: 2314 seconds
#
# Revision: 1
# Processed by: cddbd v1.4PL0 Copyright (c) Steve Scherf et al.
# Submitted via: MusicWizard 6.0.0
#
DISCID=b509080d
DTITLE=Johnny Ashcroft - I've Got A Thing About Trains
DYEAR=1976
DGENRE=Austrian Country
TTITLE0=Orange Blossom Special
TTITLE1=Rock Island Line
TTITLE2=Big Railroad Man
TTITLE3=Look Out Here She Comes
TTITLE4=City Of New Orleans
TTITLE5=Jolly Green Giant
TTITLE6=The Wreck Of The Old 97
TTITLE7=The Train I'm On
TTITLE8=Wabash Cannonball
TTITLE9=I'm Movin' On
TTITLE10=Two Old Timers
TTITLE11=I Dreamed I Was A Railroad Man
TTITLE12=Epilogue
EXTD=(c)1976 RCA Australia
EXTT0=
EXTT1=
EXTT2=
EXTT3=
EXTT4=
EXTT5=
EXTT6=
EXTT7=
EXTT8=
EXTT9=
EXTT10=
EXTT11=
EXTT12=
PLAYORDER=
